:SAMPLES-PER-SECOND 30
:FULLY-SPECIFIED
:DEGREES
33
root  -35.9367 21.6546 -4.09209 -55.5648 69.3207 -81.3781
RightUpLeg  -99.8676 4.56788 22.3356
RightLeg  109.905 12.0281 -1.61333
RightFoot  -29.5258 -0.0535915 -0.359
RightToes  5.82063e-011 -1.59028e-015 9.93923e-017
Spine  54.4061 -2.14916 4.08296
Spine1  6.78546 -0.382864 8.72808
HEad  -52.003 17.1287 -4.94536
LeftShoulder1  9.93923e-017 0 1.22299e-017
LeftArm  -0.705279 -57.4419 -70.6828
LeftForeArm  0.469192 1.40299 4.54589
LeftHand  -2.2782 0.574773 37.11
RightShoulder  1.98785e-016 -4.96962e-017 1.55301e-017
RightArm  54.5229 28.74 84.067
RightForeArm  -18.4067 25.1453 -25.0063
RightHand  3.12171 -14.1712 -25.1586
LeftUpLeg  -13.83 -2.3265 7.61888
LeftLeg  90.1485 -13.0296 0.735106
LeftFoot  -9.02264 -0.117615 2.37821
LeftToes  2.21007e-009 5.55039e-011 -9.07147e-011
34
root  -35.4285 21.6171 -3.82646 -57.9748 70.5305 -82.9631
RightUpLeg  -103.044 3.90403 23.9093
RightLeg  103.975 11.7645 -1.76314
RightFoot  -28.7427 -0.0229001 -0.138836
RightToes  5.82063e-011 -1.59028e-015 9.93923e-017
Spine  52.2878 -2.12341 1.65219
Spine1  8.26668 -1.75693 10.3599
HEad  -50.495 18.3296 -3.57955
LeftShoulder1  9.93923e-017 0 1.22299e-017
LeftArm  -2.68357 -55.6397 -68.5472
LeftForeArm  2.05366 1.17166 3.86107
LeftHand  -2.35148 0.473511 37.4273
RightShoulder  1.98785e-016 -4.96962e-017 1.55301e-017
RightArm  50.4413 28.5068 82.9576
RightForeArm  -18.5978 28.6846 -27.4699
RightHand  2.79448 -13.6223 -23.0747
LeftUpLeg  -11.2645 -2.83793 7.51515
LeftLeg  88.1559 -12.9427 1.38961
LeftFoot  -9.18829 -0.116632 2.436
LeftToes  2.21007e-009 5.55039e-011 -9.07147e-011
35
root  -34.8878 21.5235 -3.50226 -62.4536 71.5321 -86.8623
RightUpLeg  -104.311 2.85826 25.1203
RightLeg  99.9998 11.5194 -1.66734
RightFoot  -26.0971 -0.0492911 -0.419129
RightToes  5.82063e-011 -1.59028e-015 9.93923e-017
Spine  50.8613 -2.42045 -0.0529738
Spine1  8.92901 -2.85146 11.5947
HEad  -50.0573 19.1883 -2.22183
LeftShoulder1  9.93923e-017 0 1.22299e-017
LeftArm  -3.81286 -54.2655 -67.5563
LeftForeArm  3.72405 0.917472 3.11129
LeftHand  -2.45185 0.345103 37.9105
RightShoulder  1.98785e-016 -4.96962e-017 1.55301e-017
RightArm  45.9022 27.0894 81.4132
RightForeArm  -18.6923 32.8228 -30.6534
RightHand  2.65713 -13.4229 -21.9432
LeftUpLeg  -8.79497 -3.9387 8.07587
LeftLeg  86.1914 -12.8203 1.73522
LeftFoot  -9.58005 -0.126845 2.96043
LeftToes  2.21007e-009 5.55039e-011 -9.07147e-011
36
root  -34.3235 21.3878 -3.09606 -67.384 72.2596 -92.0105
RightUpLeg  -104.872 2.33025 25.5757
RightLeg  98.3833 11.5614 -2.31174
RightFoot  -22.3423 -0.129968 -1.67034
RightToes  5.82063e-011 -1.59028e-015 9.93923e-017
Spine  49.4789 -2.6863 -1.35397
Spine1  8.88539 -3.66511 12.582
HEad  -50.0892 19.9451 -0.783546
LeftShoulder1  9.93923e-017 0 1.22299e-017
LeftArm  -3.90345 -52.85 -67.2413
LeftForeArm  5.0299 0.597687 2.13904
LeftHand  -2.5888 0.244193 39.0327
RightShoulder  1.98785e-016 -4.96962e-017 1.55301e-017
RightArm  41.926 24.741 80.2187
RightForeArm  -18.7564 36.4203 -33.7719
RightHand  2.52788 -13.2382 -20.803
LeftUpLeg  -7.20942 -5.07509 9.22825
LeftLeg  84.2735 -12.6929 1.75812
LeftFoot  -9.74975 -0.142512 3.56181
LeftToes  2.21007e-009 5.55039e-011 -9.07147e-011
37
root  -33.7385 21.3046 -2.60275 -72.2003 72.7513 -97.2957
RightUpLeg  -104.736 2.58408 25.3915
RightLeg  98.4299 11.8794 -3.90473
RightFoot  -20.2857 -0.218842 -3.43259
RightToes  5.82063e-011 -1.59028e-015 9.93923e-017
Spine  48.2685 -2.53625 -2.82642
Spine1  8.41228 -4.32581 13.8449
HEad  -49.7967 20.5978 0.186663
LeftShoulder1  9.93923e-017 0 1.22299e-017
LeftArm  -3.73104 -50.8205 -66.8816
LeftForeArm  6.2933 0.238644 1.03909
LeftHand  -2.72745 0.160996 40.2657
RightShoulder  1.98785e-016 -4.96962e-017 1.55301e-017
RightArm  39.4066 22.194 80.1135
RightForeArm  -18.8487 38.5328 -35.7955
RightHand  2.39658 -13.0216 -19.7023
LeftUpLeg  -6.0058 -5.68225 11.0954
LeftLeg  82.1136 -12.5872 1.3431
LeftFoot  -9.71651 -0.161652 4.13167
LeftToes  2.21007e-009 5.55039e-011 -9.07147e-011
38
root  -33.1822 21.3932 -2.05369 -79.081 73.0663 -103.612
RightUpLeg  -103.152 2.8117 24.9799
RightLeg  98.882 12.4636 -6.47088
RightFoot  -21.1573 -0.321519 -4.50599
RightToes  5.82063e-011 -1.59028e-015 9.93923e-017
Spine  48.6078 -2.28695 -4.41948
Spine1  7.23306 -5.16172 15.404
HEad  -49.3423 21.1374 0.209978
LeftShoulder1  9.93923e-017 0 1.22299e-017
LeftArm  -4.57652 -48.5421 -66.0489
LeftForeArm  7.86714 -0.0481521 0.191165
LeftHand  -2.77249 0.133924 40.6625
RightShoulder  1.98785e-016 -4.96962e-017 1.55301e-017
RightArm  38.6148 20.095 81.5373
RightForeArm  -19.0477 38.9547 -36.1992
RightHand  2.32868 -12.9161 -19.0734
LeftUpLeg  -3.97685 -6.64481 13.4747
LeftLeg  79.5375 -12.608 0.120759
LeftFoot  -9.47793 -0.187713 4.64084
LeftToes  2.21007e-009 5.55039e-011 -9.07147e-011
39
root  -32.7233 21.7111 -1.5054 -89.4019 73.102 -112.373
RightUpLeg  -100.344 2.30268 24.5089
RightLeg  98.6508 13.1185 -9.6361
RightFoot  -23.2848 -0.377609 -4.24363
RightToes  5.82063e-011 -1.59028e-015 9.93923e-017
Spine  50.7622 -2.53553 -5.61789
Spine1  5.25024 -6.43102 16.9856
HEad  -50.0238 21.6636 -0.412606
LeftShoulder1  9.93923e-017 0 1.22299e-017
LeftArm  -6.72677 -46.6046 -64.7229
LeftForeArm  9.46284 -0.218449 -0.272595
LeftHand  -2.64849 0.271728 40.017
RightShoulder  1.98785e-016 -4.96962e-017 1.55301e-017
RightArm  38.7212 18.4031 84.3057
RightForeArm  -20.1203 38.4714 -35.6312
RightHand  2.28572 -12.9037 -18.4279
LeftUpLeg  -1.51773 -9.5496 15.4072
LeftLeg  76.7312 -12.8878 -1.87671
LeftFoot  -8.42924 -0.22883 4.67666
LeftToes  2.21007e-009 5.55039e-011 -9.07147e-011
40
root  -32.3441 22.2606 -1.01344 -100.057 72.656 -121.899
RightUpLeg  -97.3725 1.46739 24.0684
RightLeg  97.2728 13.4501 -12.5364
RightFoot  -24.8117 -0.330393 -3.2054
RightToes  5.82063e-011 -1.59028e-015 9.93923e-017
Spine  52.7437 -3.16077 -6.23235
Spine1  3.83688 -7.94577 18.7068
HEad  -53.017 22.0706 -1.13641
LeftShoulder1  9.93923e-017 0 1.22299e-017
LeftArm  -8.89715 -45.0573 -63.0894
LeftForeArm  10.5659 -0.367482 -0.69169
LeftHand  -2.33078 0.65195 38.454
RightShoulder  1.98785e-016 -4.96962e-017 1.55301e-017
RightArm  38.3507 16.6575 87.279
RightForeArm  -23.0819 38.2325 -35.1724
RightHand  2.18463 -12.8349 -17.0578
LeftUpLeg  0.00341724 -14.1858 16.2021
LeftLeg  73.6227 -13.3338 -3.68095
LeftFoot  -6.48222 -0.2549 3.91875
LeftToes  2.21007e-009 5.55039e-011 -9.07147e-011
41
root  -31.8987 23.0394 -0.58133 -106.787 72.1199 -128.855
RightUpLeg  -94.7223 1.154 23.8378
RightLeg  94.9049 13.2371 -14.5928
RightFoot  -25.7772 -0.267502 -2.39239
RightToes  5.82063e-011 -1.59028e-015 9.93923e-017
Spine  52.6035 -3.5399 -6.40052
Spine1  4.46629 -9.09845 19.93
HEad  -57.7044 21.9479 -1.3303
LeftShoulder1  9.93923e-017 0 1.22299e-017
LeftArm  -8.9586 -43.9823 -61.9807
LeftForeArm  11.1569 -0.562591 -1.29171
LeftHand  -1.7419 1.3619 34.9651
RightShoulder  1.98785e-016 -4.96962e-017 1.55301e-017
RightArm  36.5887 14.2747 89.2955
RightForeArm  -28.0224 38.5745 -35.1274
RightHand  2.04943 -12.6968 -15.3447
LeftUpLeg  0.501907 -18.3019 16.3133
LeftLeg  69.3789 -13.6893 -4.37686
LeftFoot  -4.4445 -0.231005 2.76323
LeftToes  2.21007e-009 5.55039e-011 -9.07147e-011
42
root  -31.2518 24.0562 -0.174289 -109.969 72.1465 -132.91
RightUpLeg  -91.6473 1.14143 23.8301
RightLeg  91.9036 12.5456 -15.6857
RightFoot  -26.9512 -0.279141 -2.27819
RightToes  5.82063e-011 -1.59028e-015 9.93923e-017
Spine  50.936 -3.28532 -6.32171
Spine1  6.50066 -9.41791 20.0955
HEad  -62.0303 21.2321 -0.980652
LeftShoulder1  9.93923e-017 0 1.22299e-017
LeftArm  -7.22072 -43.81 -62.0179
LeftForeArm  12.1031 -0.716455 -1.73482
LeftHand  -0.83125 2.5632 27.4485
RightShoulder  1.98785e-016 -4.96962e-017 1.55301e-017
RightArm  33.9412 10.6869 90.0218
RightForeArm  -33.5 38.5485 -34.6867
RightHand  1.92734 -12.479 -14.0812
LeftUpLeg  1.34706 -20.2487 16.4254
LeftLeg  63.1442 -14.0324 -4.48497
LeftFoot  -1.99024 -0.175436 1.6599
LeftToes  2.21007e-009 5.55039e-011 -9.07147e-011
43
root  -30.4574 25.2601 0.213118 -113.243 72.8259 -136.823
RightUpLeg  -87.777 0.579243 23.6117
RightLeg  88.498 11.5617 -15.9473
RightFoot  -28.0412 -0.356802 -2.70119
RightToes  5.82063e-011 -1.59028e-015 9.93923e-017
Spine  50.0605 -2.69328 -5.84991
Spine1  6.76094 -8.79914 19.738
HEad  -63.9938 20.2021 -0.486622
LeftShoulder1  9.93923e-017 0 1.22299e-017
LeftArm  -5.43887 -44.0294 -63.757
LeftForeArm  14.7036 -0.814359 -1.87525
LeftHand  0.0901544 4.04499 15.52
RightShoulder  1.98785e-016 -4.96962e-017 1.55301e-017
RightArm  31.9094 5.28932 89.955
RightForeArm  -38.0038 36.9356 -32.8316
RightHand  1.77825 -12.0565 -13.0225
LeftUpLeg  2.94136 -20.3794 16.5458
LeftLeg  55.5623 -15.0265 -5.31163
LeftFoot  2.78816 -0.0514282 0.411452
LeftToes  2.21007e-009 5.55039e-011 -9.07147e-011
44
root  -29.7362 26.6184 0.559407 -117.189 72.6799 -139.689
RightUpLeg  -81.9039 -0.799174 23.9888
RightLeg  84.1578 10.2541 -15.9917
RightFoot  -28.1906 -0.429425 -3.23034
RightToes  5.82063e-011 -1.59028e-015 9.93923e-017
Spine  52.6987 -2.34752 -3.71767
Spine1  3.73756 -7.28156 19.8847
HEad  -63.7717 19.1473 -0.33023
LeftShoulder1  9.93923e-017 0 1.22299e-017
LeftArm  -4.12601 -43.2923 -66.9092
LeftForeArm  18.8068 -1.04067 -2.33836
LeftHand  0.620637 4.93215 3.82607
RightShoulder  1.98785e-016 -4.96962e-017 1.55301e-017
RightArm  31.9596 -1.17705 89.6587
RightForeArm  -41.697 33.348 -29.5006
RightHand  1.56065 -11.3867 -11.3538
LeftUpLeg  5.22238 -19.9068 17.8128
LeftLeg  48.8824 -17.1059 -7.10923
LeftFoot  10.0906 0.332346 -1.4003
LeftToes  2.21007e-009 5.55039e-011 -9.07147e-011
45
root  -29.0652 27.9336 0.810337 -121.185 72.4622 -142.552
RightUpLeg  -76.2524 -1.87982 23.8218
RightLeg  79.6178 8.8566 -16.2042
RightFoot  -27.665 -0.436168 -3.39535
RightToes  5.82063e-011 -1.59028e-015 9.93923e-017
Spine  55.5675 -2.54372 -0.957929
Spine1  -0.069608 -5.7767 20.0514
HEad  -63.2017 18.0311 -0.485042
LeftShoulder1  9.93923e-017 0 1.22299e-017
LeftArm  -2.77278 -40.8668 -70.2141
LeftForeArm  22.2253 -1.52027 -3.55149
LeftHand  0.70468 4.82465 -0.732985
RightShoulder  1.98785e-016 -4.96962e-017 1.55301e-017
RightArm  34.5925 -6.57482 89.547
RightForeArm  -46.1339 28.7224 -25.756
RightHand  1.33427 -10.6396 -9.28589
LeftUpLeg  5.6409 -18.9588 18.9683
LeftLeg  45.8797 -18.7962 -8.52147
LeftFoot  16.3582 1.03076 -3.67725
LeftToes  2.21007e-009 5.55039e-011 -9.07147e-011
46
root  -28.2762 29.0919 0.959588 -125.371 73.2686 -146.64
RightUpLeg  -72.0141 -2.18527 22.2002
RightLeg  75.7009 7.60275 -16.3416
RightFoot  -27.3422 -0.375485 -2.98877
RightToes  5.82063e-011 -1.59028e-015 9.93923e-017
Spine  55.6834 -3.08853 1.10813
Spine1  -2.10998 -4.82299 18.846
HEad  -63.2007 16.5058 -0.227188
LeftShoulder1  9.93923e-017 0 1.22299e-017
LeftArm  0.66761 -36.989 -73.2859
LeftForeArm  20.7404 -2.61186 -4.99451
LeftHand  0.540945 4.3572 2.43947
RightShoulder  1.98785e-016 -4.96962e-017 1.55301e-017
RightArm  38.378 -9.59396 89.4169
RightForeArm  -52.121 24.7956 -22.7863
RightHand  1.22657 -10.2773 -8.0838
LeftUpLeg  3.13461 -17.4268 18.6358
LeftLeg  47.9744 -18.7975 -8.99309
LeftFoot  18.2923 1.63016 -5.56701
LeftToes  2.21007e-009 5.55039e-011 -9.07147e-011
